<?xml version="1.0" encoding="UTF-8" ?>
<!DOCTYPE svg PUBLIC "-//W3C//DTD SVG 1.1//EN" "http://www.w3.org/Graphics/SVG/1.1/DTD/svg11.dtd">
<svg width="946pt" height="542pt" viewBox="0 0 946 542" version="1.1" xmlns="http://www.w3.org/2000/svg">
<g id="#3b6c94ff">
<path fill="#3b6c94" opacity="1.00" d=" M 367.25 8.95 C 382.80 5.70 399.58 15.70 404.60 30.69 C 409.35 42.45 405.42 56.71 396.20 65.19 C 391.85 69.89 385.77 72.30 379.75 74.05 C 368.73 76.24 356.77 72.11 349.32 63.69 C 344.91 59.41 342.54 53.58 340.94 47.76 C 338.83 36.97 342.70 25.25 350.80 17.81 C 355.15 13.11 361.23 10.70 367.25 8.95 Z" />
<path fill="#3b6c94" opacity="1.00" d=" M 348.69 118.88 C 349.50 118.79 351.13 118.61 351.95 118.51 C 545.46 118.53 738.97 118.54 932.49 118.51 C 932.46 193.84 932.47 269.16 932.48 344.48 C 715.50 344.47 498.50 344.47 281.51 344.48 C 281.54 289.32 281.52 234.16 281.53 179.00 C 281.62 173.29 281.28 167.56 281.75 161.86 C 283.25 162.71 284.78 163.52 286.30 164.36 C 286.96 170.55 286.53 176.79 286.64 183.00 C 286.58 235.16 286.76 287.32 286.55 339.48 C 396.36 339.29 506.18 339.45 616.00 339.40 C 719.82 339.45 823.64 339.29 927.45 339.48 C 927.29 267.51 927.31 195.54 927.44 123.57 C 737.96 123.79 548.48 123.58 359.00 123.68 C 355.73 123.67 352.47 123.69 349.22 123.43 C 349.05 121.91 348.88 120.39 348.69 118.88 Z" />
<path fill="#3b6c94" opacity="1.00" d=" M 183.27 140.05 C 196.45 137.78 210.91 141.97 220.22 151.78 C 226.84 157.86 230.50 166.34 232.36 174.99 C 233.31 185.39 231.21 196.33 224.93 204.85 C 219.85 211.33 213.47 217.13 205.57 219.86 C 197.06 222.80 187.44 223.84 178.86 220.60 C 169.02 217.97 161.00 210.78 155.45 202.46 C 149.34 191.99 147.33 178.62 151.90 167.20 C 156.69 153.49 169.12 143.04 183.27 140.05 Z" />
<path fill="#3b6c94" opacity="1.00" d=" M 467.51 173.51 C 481.35 173.59 495.19 173.42 509.03 173.60 C 517.11 174.63 525.50 175.91 532.50 180.40 C 538.78 184.19 543.02 190.83 544.48 197.96 C 547.29 208.65 544.70 220.88 536.93 228.93 C 530.50 235.17 521.65 237.97 513.00 239.38 C 507.12 239.58 501.24 239.50 495.36 239.37 C 495.61 251.07 495.40 262.78 495.48 274.48 C 486.16 274.47 476.84 274.47 467.51 274.48 C 467.53 240.83 467.54 207.17 467.51 173.51 M 495.36 193.37 C 495.54 202.12 495.54 210.88 495.36 219.63 C 499.54 219.36 503.85 219.96 507.92 218.69 C 511.07 217.83 514.59 216.38 515.95 213.14 C 518.49 208.23 518.01 201.83 514.47 197.53 C 509.21 192.98 501.86 193.43 495.36 193.37 Z" />
<path fill="#3b6c94" opacity="1.00" d=" M 556.52 173.52 C 565.84 173.53 575.16 173.53 584.48 173.52 C 584.39 186.22 584.62 198.93 584.36 211.64 C 594.45 211.45 604.55 211.46 614.64 211.64 C 614.38 198.93 614.60 186.22 614.52 173.52 C 623.84 173.53 633.16 173.53 642.49 173.51 C 642.46 207.17 642.47 240.83 642.49 274.49 C 633.16 274.46 623.84 274.47 614.52 274.48 C 614.60 260.11 614.38 245.73 614.64 231.36 C 604.55 231.54 594.45 231.54 584.36 231.36 C 584.62 245.73 584.39 260.11 584.48 274.49 C 575.16 274.47 565.84 274.47 556.52 274.48 C 556.53 240.83 556.53 207.17 556.52 173.52 Z" />
<path fill="#3b6c94" opacity="1.00" d=" M 659.52 173.52 C 683.50 173.53 707.49 173.54 731.48 173.51 C 731.47 180.17 731.47 186.83 731.48 193.48 C 716.78 193.39 702.06 193.62 687.36 193.36 C 687.54 199.78 687.53 206.22 687.36 212.64 C 701.40 212.39 715.44 212.58 729.48 212.53 C 729.47 219.18 729.48 225.82 729.47 232.46 C 715.44 232.42 701.40 232.61 687.36 232.36 C 687.54 239.78 687.54 247.22 687.36 254.64 C 702.73 254.39 718.11 254.57 733.48 254.54 C 733.47 261.18 733.47 267.82 733.48 274.46 C 708.82 274.49 684.17 274.46 659.52 274.48 C 659.53 240.83 659.53 207.17 659.52 173.52 Z" />
<path fill="#3b6c94" opacity="1.00" d=" M 748.52 173.51 C 760.08 173.52 771.65 173.56 783.22 173.50 C 792.26 191.32 801.07 209.26 810.06 227.11 C 812.30 231.73 814.77 236.25 816.66 241.03 C 816.23 229.03 816.49 217.02 816.33 205.01 C 814.79 194.60 815.82 184.03 815.52 173.54 C 824.17 173.50 832.83 173.54 841.48 173.52 C 841.47 207.17 841.47 240.83 841.48 274.49 C 829.98 274.41 818.46 274.59 806.96 274.39 C 796.53 251.55 783.62 229.89 773.31 207.00 C 773.56 229.49 773.56 252.00 773.73 274.49 C 765.32 274.46 756.92 274.47 748.51 274.48 C 748.54 240.83 748.53 207.17 748.52 173.51 Z" />
<path fill="#3b6c94" opacity="1.00" d=" M 387.87 212.93 C 392.99 205.43 401.37 200.70 410.08 198.66 C 414.02 198.42 418.00 198.37 421.94 198.67 C 428.68 200.52 435.55 204.27 438.65 210.83 C 438.60 207.28 439.78 203.89 440.68 200.51 C 447.11 200.57 453.54 200.46 459.98 200.57 C 455.75 220.63 451.33 240.66 447.09 260.72 C 444.65 272.61 442.08 285.39 433.62 294.64 C 425.93 303.61 413.52 307.32 402.00 306.48 C 392.13 307.07 382.27 304.89 373.13 301.27 C 374.80 295.56 376.10 289.65 378.62 284.26 C 388.53 289.21 400.35 292.71 411.26 289.06 C 416.35 287.53 420.33 283.48 422.67 278.82 C 425.43 273.50 426.62 267.56 428.82 262.01 C 423.51 270.15 413.70 275.20 403.98 274.53 C 396.54 275.01 389.23 271.00 384.88 265.07 C 381.69 260.90 380.06 255.80 378.87 250.75 C 377.15 237.65 379.89 223.66 387.87 212.93 M 415.54 214.84 C 409.88 216.38 405.71 220.96 403.42 226.20 C 400.68 232.55 398.73 239.60 399.77 246.56 C 400.63 250.50 401.85 255.19 405.81 257.11 C 410.95 260.11 417.39 258.10 421.97 254.94 C 428.99 249.52 431.33 240.36 432.32 231.96 C 432.78 227.21 431.52 222.21 428.52 218.47 C 425.27 215.08 420.07 213.63 415.54 214.84 Z" />
<path fill="#3b6c94" opacity="1.00" d=" M 167.28 261.99 C 172.13 261.04 177.14 261.65 182.06 261.55 C 196.68 263.84 210.87 271.22 219.62 283.40 C 225.30 290.87 228.68 299.84 230.37 309.01 C 230.59 313.35 230.51 317.71 230.44 322.06 C 228.12 337.93 219.37 353.16 205.55 361.70 C 200.02 365.53 193.60 367.78 187.13 369.42 C 181.58 371.19 175.67 370.32 169.94 370.44 C 157.40 368.50 145.22 362.87 136.48 353.51 C 130.73 347.36 126.26 339.91 123.90 331.81 C 116.12 309.15 126.72 282.22 147.07 269.90 C 153.13 265.80 160.23 263.68 167.28 261.99 Z" />
<path fill="#3b6c94" opacity="1.00" d=" M 70.27 405.01 C 87.38 402.58 105.34 407.41 119.16 417.79 C 131.39 427.13 140.57 440.69 143.73 455.83 C 147.41 469.08 145.32 483.42 140.33 496.06 C 134.80 509.22 124.84 520.45 112.50 527.61 C 105.00 532.22 96.43 534.42 87.89 536.18 C 68.23 538.32 47.42 531.80 33.42 517.58 C 18.57 503.55 11.58 482.26 13.82 462.12 C 15.68 452.88 18.23 443.60 23.53 435.68 C 31.18 423.29 43.10 413.57 56.78 408.56 C 61.13 406.87 65.76 406.16 70.27 405.01 Z" />
</g>
<g id="#a43635ff">
<path fill="#a43635" opacity="1.00" d=" M 299.66 83.07 C 322.12 79.05 345.70 96.27 348.69 118.88 C 348.88 120.39 349.05 121.91 349.22 123.43 C 350.55 135.84 345.03 148.57 336.10 157.10 C 323.42 169.88 302.03 173.67 286.30 164.36 C 284.78 163.52 283.25 162.71 281.75 161.86 C 271.76 155.36 265.20 144.47 262.92 132.86 C 261.52 122.91 263.62 112.49 268.70 103.81 C 275.37 92.86 286.86 84.79 299.66 83.07 Z" />
</g>
<g id="#4f606cff">
<path fill="#4f606c" opacity="1.00" d=" M 282.51 370.51 C 283.50 370.51 285.50 370.51 286.49 370.52 C 286.43 380.84 286.43 391.16 286.49 401.49 C 285.50 401.49 283.50 401.49 282.51 401.48 C 282.57 391.16 282.57 380.83 282.51 370.51 Z" />
<path fill="#4f606c" opacity="1.00" d=" M 299.54 370.46 C 301.06 370.61 302.59 370.63 304.12 370.52 C 308.79 379.15 314.10 387.42 318.61 396.13 C 318.47 387.59 318.62 379.05 318.50 370.51 C 319.50 370.51 321.50 370.52 322.50 370.52 C 322.41 380.85 322.46 391.18 322.47 401.51 C 320.91 401.39 319.35 401.39 317.80 401.53 C 312.90 393.04 307.68 384.71 303.29 375.95 C 303.66 384.46 303.32 392.97 303.50 401.49 C 302.50 401.49 300.50 401.48 299.51 401.48 C 299.59 391.14 299.53 380.80 299.54 370.46 Z" />
<path fill="#4f606c" opacity="1.00" d=" M 332.45 370.52 C 339.80 370.56 347.16 370.56 354.52 370.52 C 354.50 371.51 354.46 373.50 354.44 374.49 C 351.40 374.32 348.37 374.59 345.35 374.34 C 345.60 383.39 345.34 392.44 345.50 401.49 C 344.50 401.49 342.50 401.48 341.50 401.48 C 341.65 392.44 341.39 383.39 341.66 374.34 C 338.62 374.59 335.58 374.32 332.55 374.49 C 332.53 373.50 332.47 371.51 332.45 370.52 Z" />
<path fill="#4f606c" opacity="1.00" d=" M 365.53 370.53 C 370.85 370.54 376.18 370.54 381.50 370.55 C 381.99 372.28 381.32 374.80 379.07 374.48 C 375.83 374.45 372.59 374.52 369.36 374.34 C 369.48 377.44 369.48 380.55 369.36 383.66 C 373.05 383.41 376.74 383.65 380.43 383.51 C 380.45 384.51 380.49 386.50 380.50 387.49 C 376.78 387.35 373.06 387.59 369.35 387.34 C 369.49 390.77 369.49 394.22 369.35 397.66 C 373.37 397.41 377.40 397.64 381.43 397.52 C 381.45 398.51 381.49 400.50 381.51 401.49 C 376.18 401.43 370.85 401.45 365.53 401.47 C 365.56 391.16 365.55 380.84 365.53 370.53 Z" />
<path fill="#4f606c" opacity="1.00" d=" M 395.53 370.54 C 399.37 370.64 403.21 370.36 407.05 370.61 C 409.29 371.81 411.43 373.57 412.43 375.97 C 412.45 377.92 412.80 379.99 412.14 381.87 C 410.80 383.47 409.27 384.89 407.61 386.15 C 410.87 390.75 412.85 396.14 414.75 401.41 C 413.74 401.44 411.73 401.50 410.73 401.53 C 408.71 397.39 407.44 392.88 405.03 388.95 C 403.84 386.94 401.30 387.59 399.37 387.23 C 399.55 391.97 399.37 396.73 399.49 401.49 C 398.50 401.48 396.50 401.48 395.50 401.48 C 395.59 391.17 395.54 380.85 395.53 370.54 M 399.36 374.34 C 399.48 377.45 399.47 380.57 399.36 383.69 C 401.40 383.52 403.47 383.68 405.50 383.41 C 407.84 382.08 409.46 379.40 408.26 376.74 C 406.93 372.94 402.34 374.95 399.36 374.34 Z" />
<path fill="#4f606c" opacity="1.00" d=" M 425.53 370.45 C 427.06 370.62 428.59 370.64 430.13 370.53 C 434.88 379.10 440.04 387.45 444.61 396.13 C 444.47 387.59 444.62 379.05 444.50 370.52 C 445.50 370.52 447.50 370.52 448.49 370.51 C 448.41 380.85 448.47 391.18 448.46 401.51 C 446.90 401.39 445.35 401.39 443.80 401.53 C 438.90 393.04 433.68 384.72 429.29 375.96 C 429.65 384.46 429.33 392.98 429.49 401.49 C 428.50 401.49 426.50 401.48 425.51 401.48 C 425.59 391.14 425.53 380.80 425.53 370.45 Z" />
<path fill="#4f606c" opacity="1.00" d=" M 464.82 386.99 C 467.17 381.46 469.10 375.76 471.66 370.33 C 473.12 370.66 475.80 369.82 476.25 371.88 C 480.00 381.72 483.89 391.52 487.72 401.33 C 486.68 401.43 484.61 401.62 483.58 401.71 C 482.41 399.01 481.30 396.27 480.53 393.41 C 475.85 393.56 471.17 393.29 466.49 393.50 C 464.78 395.73 464.19 398.80 463.19 401.45 C 462.21 401.47 460.25 401.51 459.27 401.53 C 460.57 396.49 463.04 391.87 464.82 386.99 M 468.04 389.60 C 471.66 389.53 475.29 389.52 478.92 389.62 C 476.90 384.84 475.02 380.00 473.53 375.03 C 471.57 379.83 469.61 384.65 468.04 389.60 Z" />
<path fill="#4f606c" opacity="1.00" d=" M 491.47 370.52 C 498.82 370.55 506.17 370.56 513.53 370.52 C 513.51 371.51 513.46 373.50 513.44 374.49 C 510.41 374.32 507.37 374.59 504.34 374.34 C 504.60 383.38 504.35 392.44 504.49 401.48 C 503.50 401.48 501.50 401.49 500.51 401.49 C 500.65 392.44 500.39 383.39 500.66 374.34 C 497.63 374.59 494.59 374.32 491.56 374.50 C 491.54 373.50 491.49 371.51 491.47 370.52 Z" />
<path fill="#4f606c" opacity="1.00" d=" M 524.50 370.51 C 525.50 370.51 527.49 370.52 528.49 370.52 C 528.43 380.84 528.43 391.16 528.49 401.48 C 527.50 401.48 525.50 401.48 524.50 401.49 C 524.57 391.16 524.57 380.84 524.50 370.51 Z" />
<path fill="#4f606c" opacity="1.00" d=" M 550.18 370.84 C 553.93 370.09 558.15 370.22 561.38 372.55 C 570.94 379.43 569.48 397.20 558.01 401.37 C 554.61 401.34 550.79 402.28 547.78 400.28 C 537.03 394.16 537.92 374.68 550.18 370.84 M 550.45 374.64 C 543.08 378.63 542.64 390.07 548.13 395.85 C 550.58 398.37 554.42 397.59 557.56 397.37 C 564.92 393.36 565.36 381.93 559.87 376.15 C 557.41 373.62 553.58 374.40 550.45 374.64 Z" />
<path fill="#4f606c" opacity="1.00" d=" M 579.54 370.47 C 581.06 370.61 582.59 370.63 584.13 370.52 C 588.79 379.15 594.09 387.42 598.61 396.13 C 598.46 387.59 598.62 379.05 598.50 370.51 C 599.50 370.51 601.50 370.52 602.50 370.52 C 602.41 380.85 602.46 391.18 602.47 401.51 C 600.90 401.39 599.35 401.40 597.80 401.53 C 592.90 393.04 587.69 384.71 583.29 375.95 C 583.65 384.46 583.33 392.98 583.50 401.49 C 582.50 401.49 580.50 401.48 579.50 401.48 C 579.59 391.14 579.53 380.80 579.54 370.47 Z" />
<path fill="#4f606c" opacity="1.00" d=" M 618.82 386.99 C 621.16 381.46 623.12 375.78 625.65 370.34 C 627.12 370.67 629.79 369.80 630.24 371.89 C 634.01 381.72 637.88 391.53 641.72 401.33 C 640.69 401.42 638.62 401.61 637.58 401.70 C 636.43 398.99 635.28 396.27 634.53 393.41 C 629.85 393.56 625.16 393.30 620.48 393.49 C 618.80 395.76 618.18 398.79 617.19 401.44 C 616.20 401.46 614.24 401.50 613.26 401.52 C 614.59 396.49 617.04 391.86 618.82 386.99 M 622.04 389.60 C 625.66 389.53 629.29 389.52 632.92 389.63 C 630.93 384.82 628.93 379.99 627.58 374.96 C 625.51 379.73 623.68 384.65 622.04 389.60 Z" />
<path fill="#4f606c" opacity="1.00" d=" M 652.50 370.51 C 653.50 370.51 655.49 370.52 656.49 370.52 C 656.35 379.56 656.60 388.61 656.34 397.66 C 660.37 397.41 664.40 397.64 668.44 397.52 C 668.46 398.51 668.51 400.49 668.53 401.48 C 663.20 401.44 657.86 401.45 652.53 401.47 C 652.54 391.15 652.59 380.83 652.50 370.51 Z" />
<path fill="#4f606c" opacity="1.00" d=" M 698.53 370.46 C 700.05 370.61 701.58 370.63 703.13 370.52 C 707.79 379.15 713.10 387.41 717.61 396.13 C 717.47 387.59 717.61 379.05 717.50 370.52 C 718.50 370.52 720.50 370.51 721.50 370.51 C 721.41 380.84 721.46 391.18 721.47 401.52 C 719.90 401.39 718.35 401.40 716.80 401.52 C 711.90 393.05 706.70 384.72 702.29 375.97 C 702.65 384.47 702.32 392.98 702.50 401.49 C 701.50 401.49 699.50 401.48 698.51 401.48 C 698.59 391.14 698.54 380.80 698.53 370.46 Z" />
<path fill="#4f606c" opacity="1.00" d=" M 735.53 370.53 C 740.85 370.54 746.18 370.55 751.50 370.54 C 751.97 372.27 751.31 374.80 749.07 374.48 C 745.83 374.45 742.59 374.52 739.36 374.34 C 739.47 377.44 739.47 380.55 739.36 383.66 C 743.04 383.41 746.74 383.65 750.43 383.51 C 750.45 384.51 750.49 386.50 750.51 387.49 C 746.78 387.35 743.06 387.59 739.35 387.34 C 739.49 390.77 739.49 394.22 739.35 397.66 C 743.37 397.41 747.40 397.64 751.43 397.52 C 751.45 398.51 751.49 400.50 751.51 401.49 C 746.18 401.43 740.85 401.45 735.53 401.47 C 735.55 391.16 735.55 380.84 735.53 370.53 Z" />
<path fill="#4f606c" opacity="1.00" d=" M 760.46 370.51 C 767.81 370.56 775.17 370.56 782.52 370.52 C 782.50 371.51 782.46 373.50 782.44 374.49 C 779.40 374.32 776.37 374.59 773.34 374.34 C 773.60 383.38 773.34 392.44 773.49 401.49 C 772.50 401.49 770.50 401.49 769.51 401.48 C 769.65 392.44 769.39 383.39 769.66 374.34 C 766.62 374.59 763.58 374.32 760.55 374.49 C 760.53 373.50 760.48 371.51 760.46 370.51 Z" />
<path fill="#4f606c" opacity="1.00" d=" M 789.31 370.60 C 790.33 370.56 792.36 370.46 793.37 370.42 C 795.94 379.19 798.43 388.01 800.41 396.94 C 802.25 387.94 805.00 379.14 807.67 370.35 C 809.16 370.63 810.67 370.70 812.20 370.58 C 813.68 377.64 816.05 384.50 817.71 391.52 C 818.14 392.70 818.09 394.32 819.42 394.92 C 821.13 386.69 823.96 378.75 825.78 370.56 C 826.75 370.53 828.68 370.46 829.65 370.42 C 827.51 380.93 823.72 391.08 821.21 401.52 C 819.72 401.34 818.25 401.33 816.79 401.50 C 814.23 393.04 812.04 384.48 809.62 375.98 C 807.36 384.58 805.04 393.17 802.30 401.64 C 800.81 401.36 799.32 401.29 797.82 401.42 C 795.38 391.04 791.94 380.92 789.31 370.60 Z" />
<path fill="#4f606c" opacity="1.00" d=" M 849.18 370.84 C 852.93 370.09 857.15 370.22 860.38 372.55 C 869.93 379.44 868.48 397.20 857.00 401.37 C 853.60 401.34 849.78 402.29 846.78 400.28 C 836.03 394.16 836.92 374.68 849.18 370.84 M 849.44 374.63 C 842.08 378.63 841.63 390.07 847.14 395.85 C 849.35 398.25 852.85 397.56 855.77 397.50 C 858.91 396.92 860.81 393.77 861.72 390.94 C 863.54 386.19 862.45 380.58 859.34 376.62 C 856.95 373.64 852.78 374.33 849.44 374.63 Z" />
<path fill="#4f606c" opacity="1.00" d=" M 880.53 370.54 C 885.57 371.02 891.82 368.89 895.65 373.28 C 898.14 375.38 897.76 379.04 897.13 381.88 C 895.79 383.47 894.27 384.89 892.62 386.15 C 895.86 390.76 897.85 396.14 899.75 401.42 C 898.74 401.44 896.73 401.50 895.73 401.53 C 893.70 397.40 892.45 392.88 890.03 388.95 C 888.83 386.94 886.30 387.59 884.37 387.23 C 884.55 391.98 884.37 396.73 884.49 401.48 C 883.50 401.48 881.50 401.48 880.50 401.48 C 880.59 391.17 880.54 380.85 880.53 370.54 M 884.36 374.34 C 884.47 377.45 884.47 380.57 884.36 383.69 C 886.40 383.52 888.46 383.68 890.50 383.40 C 892.97 382.05 894.32 379.31 893.35 376.57 C 891.74 373.04 887.34 374.93 884.36 374.34 Z" />
<path fill="#4f606c" opacity="1.00" d=" M 911.51 370.52 C 912.50 370.52 914.49 370.51 915.49 370.51 C 915.38 374.95 915.59 379.40 915.29 383.84 C 918.90 379.62 923.01 375.86 926.86 371.87 C 928.21 369.88 930.77 370.70 932.79 370.61 C 928.55 375.99 923.30 380.51 918.39 385.28 C 923.52 390.65 929.25 395.57 933.82 401.43 C 931.80 401.28 929.21 402.12 927.86 400.13 C 923.70 395.74 919.40 391.48 915.30 387.05 C 915.58 391.85 915.38 396.67 915.49 401.48 C 914.49 401.48 912.50 401.48 911.51 401.48 C 911.57 391.16 911.57 380.84 911.51 370.52 Z" />
</g>
</svg>
